<svg width="129" height="37" viewBox="0 0 129 37" fill="none" xmlns="http://www.w3.org/2000/svg">
<path d="M18.008 9.72C17.552 8.88 16.892 8.244 16.028 7.812C15.188 7.356 14.192 7.128 13.04 7.128C11.048 7.128 9.452 7.788 8.252 9.108C7.052 10.404 6.452 12.144 6.452 14.328C6.452 16.656 7.076 18.48 8.324 19.8C9.596 21.096 11.336 21.744 13.544 21.744C15.056 21.744 16.328 21.36 17.36 20.592C18.416 19.824 19.184 18.72 19.664 17.28H11.852V12.744H25.244V18.468C24.788 20.004 24.008 21.432 22.904 22.752C21.824 24.072 20.444 25.14 18.764 25.956C17.084 26.772 15.188 27.18 13.076 27.18C10.58 27.18 8.348 26.64 6.38 25.56C4.436 24.456 2.912 22.932 1.808 20.988C0.728 19.044 0.188 16.824 0.188 14.328C0.188 11.832 0.728 9.612 1.808 7.668C2.912 5.7 4.436 4.176 6.38 3.096C8.324 1.992 10.544 1.44 13.04 1.44C16.064 1.44 18.608 2.172 20.672 3.636C22.76 5.1 24.14 7.128 24.812 9.72H18.008ZM37.7979 27.288C35.8299 27.288 34.0539 26.868 32.4699 26.028C30.9099 25.188 29.6739 23.988 28.7619 22.428C27.8739 20.868 27.4299 19.044 27.4299 16.956C27.4299 14.892 27.8859 13.08 28.7979 11.52C29.7099 9.936 30.9579 8.724 32.5419 7.884C34.1259 7.044 35.9019 6.624 37.8699 6.624C39.8379 6.624 41.6139 7.044 43.1979 7.884C44.7819 8.724 46.0299 9.936 46.9419 11.52C47.8539 13.08 48.3099 14.892 48.3099 16.956C48.3099 19.02 47.8419 20.844 46.9059 22.428C45.9939 23.988 44.7339 25.188 43.1259 26.028C41.5419 26.868 39.7659 27.288 37.7979 27.288ZM37.7979 21.96C38.9739 21.96 39.9699 21.528 40.7859 20.664C41.6259 19.8 42.0459 18.564 42.0459 16.956C42.0459 15.348 41.6379 14.112 40.8219 13.248C40.0299 12.384 39.0459 11.952 37.8699 11.952C36.6699 11.952 35.6739 12.384 34.8819 13.248C34.0899 14.088 33.6939 15.324 33.6939 16.956C33.6939 18.564 34.0779 19.8 34.8459 20.664C35.6379 21.528 36.6219 21.96 37.7979 21.96ZM60.7198 27.288C58.7518 27.288 56.9758 26.868 55.3918 26.028C53.8318 25.188 52.5958 23.988 51.6838 22.428C50.7958 20.868 50.3518 19.044 50.3518 16.956C50.3518 14.892 50.8078 13.08 51.7197 11.52C52.6318 9.936 53.8798 8.724 55.4638 7.884C57.0478 7.044 58.8238 6.624 60.7918 6.624C62.7598 6.624 64.5358 7.044 66.1198 7.884C67.7038 8.724 68.9518 9.936 69.8638 11.52C70.7758 13.08 71.2318 14.892 71.2318 16.956C71.2318 19.02 70.7638 20.844 69.8278 22.428C68.9158 23.988 67.6558 25.188 66.0478 26.028C64.4638 26.868 62.6878 27.288 60.7198 27.288ZM60.7198 21.96C61.8958 21.96 62.8918 21.528 63.7078 20.664C64.5478 19.8 64.9678 18.564 64.9678 16.956C64.9678 15.348 64.5598 14.112 63.7438 13.248C62.9518 12.384 61.9678 11.952 60.7918 11.952C59.5918 11.952 58.5958 12.384 57.8038 13.248C57.0118 14.088 56.6158 15.324 56.6158 16.956C56.6158 18.564 56.9998 19.8 57.7678 20.664C58.5598 21.528 59.5438 21.96 60.7198 21.96ZM82.1296 6.624C83.5456 6.624 84.7816 6.912 85.8376 7.488C86.9176 8.064 87.7456 8.82 88.3216 9.756V6.912H94.4776V26.964C94.4776 28.812 94.1056 30.48 93.3616 31.968C92.6416 33.48 91.5256 34.68 90.0136 35.568C88.5256 36.456 86.6656 36.9 84.4336 36.9C81.4576 36.9 79.0456 36.192 77.1976 34.776C75.3496 33.384 74.2936 31.488 74.0296 29.088H80.1136C80.3056 29.856 80.7616 30.456 81.4816 30.888C82.2016 31.344 83.0896 31.572 84.1456 31.572C85.4176 31.572 86.4256 31.2 87.1696 30.456C87.9376 29.736 88.3216 28.572 88.3216 26.964V24.12C87.7216 25.056 86.8936 25.824 85.8376 26.424C84.7816 27 83.5456 27.288 82.1296 27.288C80.4736 27.288 78.9736 26.868 77.6296 26.028C76.2856 25.164 75.2176 23.952 74.4256 22.392C73.6576 20.808 73.2736 18.984 73.2736 16.92C73.2736 14.856 73.6576 13.044 74.4256 11.484C75.2176 9.924 76.2856 8.724 77.6296 7.884C78.9736 7.044 80.4736 6.624 82.1296 6.624ZM88.3216 16.956C88.3216 15.42 87.8896 14.208 87.0256 13.32C86.1856 12.432 85.1536 11.988 83.9296 11.988C82.7056 11.988 81.6616 12.432 80.7976 13.32C79.9576 14.184 79.5376 15.384 79.5376 16.92C79.5376 18.456 79.9576 19.68 80.7976 20.592C81.6616 21.48 82.7056 21.924 83.9296 21.924C85.1536 21.924 86.1856 21.48 87.0256 20.592C87.8896 19.704 88.3216 18.492 88.3216 16.956ZM105.087 0.36V27H98.9312V0.36H105.087ZM128.484 16.632C128.484 17.208 128.448 17.808 128.376 18.432H114.444C114.54 19.68 114.936 20.64 115.632 21.312C116.352 21.96 117.228 22.284 118.26 22.284C119.796 22.284 120.864 21.636 121.464 20.34H128.016C127.68 21.66 127.068 22.848 126.18 23.904C125.316 24.96 124.224 25.788 122.904 26.388C121.584 26.988 120.108 27.288 118.476 27.288C116.508 27.288 114.756 26.868 113.22 26.028C111.684 25.188 110.484 23.988 109.62 22.428C108.756 20.868 108.324 19.044 108.324 16.956C108.324 14.868 108.744 13.044 109.584 11.484C110.448 9.924 111.648 8.724 113.184 7.884C114.72 7.044 116.484 6.624 118.476 6.624C120.42 6.624 122.148 7.032 123.66 7.848C125.172 8.664 126.348 9.828 127.188 11.34C128.052 12.852 128.484 14.616 128.484 16.632ZM122.184 15.012C122.184 13.956 121.824 13.116 121.104 12.492C120.384 11.868 119.484 11.556 118.404 11.556C117.372 11.556 116.496 11.856 115.776 12.456C115.08 13.056 114.648 13.908 114.48 15.012H122.184Z" fill="#898888"/>
</svg>
